<svg width="180" height="25" viewBox="0 0 180 25" fill="none" xmlns="http://www.w3.org/2000/svg">
<path d="M10.2371 2.72924e-07C11.8652 2.72924e-07 13.2926 0.234182 14.5193 0.702547C15.7682 1.14861 16.3927 1.76194 16.3927 2.54255C16.3927 3.32315 16.0916 4.29333 15.4895 5.45309C14.9096 6.59055 14.4189 7.15927 14.0175 7.15927C13.9059 7.15927 13.7721 7.10352 13.616 6.992C13.4822 6.85818 13.1476 6.72436 12.6124 6.59055C12.0994 6.43443 11.6533 6.35636 11.2742 6.35636C9.9806 6.35636 8.93236 6.81358 8.12945 7.728C7.34885 8.64243 6.95854 10.0475 6.95854 11.9433C6.95854 13.8167 7.36 15.2107 8.16291 16.1251C8.98812 17.0395 10.0252 17.4967 11.2742 17.4967C11.7872 17.4967 12.3559 17.4298 12.9804 17.296C13.6272 17.1399 14.0844 16.928 14.352 16.6604C14.3966 16.6158 14.4858 16.5935 14.6196 16.5935C14.7535 16.5935 14.9988 16.8499 15.3556 17.3629C15.7348 17.8536 16.0805 18.5115 16.3927 19.3367C16.705 20.1396 16.8611 20.7641 16.8611 21.2102C16.8611 22.08 16.192 22.7714 14.8538 23.2844C13.5156 23.7973 11.9321 24.0538 10.1033 24.0538C7.15927 24.0538 4.73939 23.0167 2.84363 20.9425C0.947876 18.8684 -2.74485e-06 15.9467 -2.74485e-06 12.1775C-2.74485e-06 8.38594 0.970179 5.40849 2.91054 3.24509C4.87321 1.0817 7.31539 2.72924e-07 10.2371 2.72924e-07ZM25.8117 23.2509C25.8117 23.6078 24.7524 23.7862 22.6336 23.7862C20.4925 23.7862 19.4219 23.6189 19.4219 23.2844V1.472C19.4219 0.691395 19.8345 0.301091 20.6597 0.301091H27.0496C32.9153 0.301091 35.8481 2.58715 35.8481 7.15927C35.8481 8.54206 35.5805 9.80218 35.0452 10.9396C34.5099 12.0548 33.7516 12.9469 32.7703 13.616L36.9856 20.6415C36.8071 21.1767 36.2273 21.7901 35.2459 22.4815C33.9078 23.4405 32.8038 23.92 31.9339 23.92C31.0641 23.92 30.4173 23.6078 29.9936 22.9833L26.8488 15.6567H25.8117V23.2509ZM25.8117 6.22255V11.2407H25.979C28.0978 11.2407 29.1572 10.3598 29.1572 8.59782C29.1572 7.79491 28.9453 7.20388 28.5216 6.82473C28.1201 6.42328 27.451 6.22255 26.5143 6.22255H25.8117ZM50.0945 0.970184C50.0945 0.524122 51.2989 0.301091 53.7076 0.301091C56.1386 0.301091 57.3542 0.524122 57.3542 0.970184V16.3258C57.3542 18.6007 56.5401 20.463 54.912 21.9127C53.2839 23.3401 51.0313 24.0538 48.1542 24.0538C45.2994 24.0538 42.9687 23.3178 41.1622 21.8458C39.3779 20.3515 38.4858 18.3442 38.4858 15.824V1.00364C38.4858 0.557576 39.6902 0.334545 42.0989 0.334545C44.5299 0.334545 45.7454 0.557576 45.7454 1.00364V16.0916C45.7454 16.5377 45.9796 16.8945 46.448 17.1622C46.9386 17.4298 47.4516 17.5636 47.9869 17.5636C48.5222 17.5636 49.0017 17.441 49.4254 17.1956C49.8715 16.9503 50.0945 16.5823 50.0945 16.0916V0.970184ZM60.162 22.1804V2.10764C60.162 1.55006 60.2958 1.11515 60.5634 0.802909C60.8534 0.468364 61.2214 0.301091 61.6674 0.301091H67.2544C70.8005 0.301091 73.4881 1.19321 75.3169 2.97746C77.1681 4.7617 78.0936 7.57188 78.0936 11.408C78.0936 19.6155 74.5921 23.7193 67.5889 23.7193H61.8682C60.7307 23.7193 60.162 23.2063 60.162 22.1804ZM66.5853 6.65746V16.6604C66.5853 17.1287 66.6187 17.4298 66.6856 17.5636C66.7525 17.6752 66.9533 17.7309 67.2878 17.7309C68.5145 17.7309 69.4401 17.2737 70.0645 16.3593C70.7113 15.4449 71.0347 13.9282 71.0347 11.8095C71.0347 9.66837 70.7002 8.27443 70.0311 7.62764C69.3843 6.98085 68.3472 6.65746 66.9198 6.65746H66.5853ZM86.0963 23.8196C86.0963 23.9758 85.0369 24.0538 82.9181 24.0538C80.8217 24.0538 79.7734 23.9869 79.7734 23.8531V17.8313C79.7734 17.6305 80.8217 17.5302 82.9181 17.5302C85.0369 17.5302 86.0963 17.5859 86.0963 17.6975V23.8196ZM89.2918 15.5564C89.7155 15.8909 90.4404 16.3481 91.4663 16.928C92.5145 17.5079 93.507 17.7978 94.4438 17.7978C95.4028 17.7978 95.8823 17.4298 95.8823 16.6938C95.8823 16.3593 95.7485 16.0693 95.4808 15.824C95.2132 15.5564 94.7225 15.2553 94.0088 14.9207C93.2951 14.5862 92.7599 14.3297 92.403 14.1513C92.0462 13.9505 91.5667 13.6383 90.9645 13.2145C90.3846 12.7685 89.9385 12.3113 89.6263 11.8429C88.7342 10.5716 88.2881 8.95467 88.2881 6.992C88.2881 5.02934 89.013 3.37891 90.4627 2.04073C91.9347 0.680243 93.8527 2.72924e-07 96.2168 2.72924e-07C97.8227 2.72924e-07 99.3058 0.178425 100.666 0.535274C102.027 0.869819 102.729 1.31588 102.774 1.87345C102.774 1.94036 102.774 2.00727 102.774 2.07418C102.774 2.85479 102.529 3.84727 102.038 5.05164C101.547 6.2337 101.202 6.89164 101.001 7.02546C99.5735 6.28946 98.291 5.92146 97.1536 5.92146C96.0384 5.92146 95.4808 6.32291 95.4808 7.12582C95.4808 7.61649 95.8934 8.0514 96.7187 8.43055C96.8971 8.51976 97.1536 8.64243 97.4881 8.79855C97.8227 8.95467 98.2018 9.14424 98.6256 9.36727C99.0716 9.568 99.54 9.83564 100.031 10.1702C100.544 10.4824 101.09 10.9062 101.67 11.4415C102.852 12.5566 103.443 14.0286 103.443 15.8575C103.443 18.2439 102.785 20.1954 101.469 21.712C100.153 23.2286 98.1238 24.0092 95.3805 24.0538C94.0423 24.0538 92.8268 23.9423 91.7339 23.7193C90.6634 23.4962 89.7267 23.0613 88.9238 22.4145C88.1208 21.7678 87.7194 20.9872 87.7194 20.0727C87.7194 19.1583 87.8867 18.255 88.2212 17.3629C88.5558 16.4485 88.9126 15.8463 89.2918 15.5564ZM116.264 23.184C116.264 23.6301 115.16 23.8531 112.952 23.8531C110.744 23.8531 109.64 23.6301 109.64 23.184V6.38982H105.626C105.247 6.38982 104.979 5.87685 104.823 4.85091C104.756 4.36024 104.723 3.85843 104.723 3.34546C104.723 2.83249 104.756 2.33067 104.823 1.84C104.979 0.814061 105.247 0.301091 105.626 0.301091H120.179C120.558 0.301091 120.825 0.814061 120.982 1.84C121.048 2.33067 121.082 2.83249 121.082 3.34546C121.082 3.85843 121.048 4.36024 120.982 4.85091C120.825 5.87685 120.558 6.38982 120.179 6.38982H116.264V23.184ZM132.923 24.0538C129.801 24.0538 127.247 23.0279 125.262 20.976C123.3 18.9241 122.318 15.9355 122.318 12.0102C122.318 8.06255 123.311 5.07394 125.296 3.04436C127.303 1.01479 129.879 2.72924e-07 133.024 2.72924e-07C136.191 2.72924e-07 138.744 1.00364 140.685 3.01091C142.625 4.99588 143.595 8.01794 143.595 12.0771C143.595 16.1139 142.603 19.1249 140.618 21.1098C138.633 23.0725 136.068 24.0538 132.923 24.0538ZM132.957 6.42327C131.886 6.42327 130.983 6.91394 130.247 7.89527C129.533 8.87661 129.176 10.2594 129.176 12.0436C129.176 13.8056 129.522 15.1661 130.213 16.1251C130.905 17.0618 131.808 17.5302 132.923 17.5302C134.061 17.5302 134.975 17.0507 135.667 16.0916C136.38 15.1326 136.737 13.761 136.737 11.9767C136.737 10.1925 136.369 8.82085 135.633 7.86182C134.919 6.90279 134.027 6.42327 132.957 6.42327ZM152.671 23.2509C152.671 23.6078 151.612 23.7862 149.493 23.7862C147.352 23.7862 146.281 23.6189 146.281 23.2844V1.472C146.281 0.691395 146.694 0.301091 147.519 0.301091H153.909C159.775 0.301091 162.707 2.58715 162.707 7.15927C162.707 8.54206 162.44 9.80218 161.905 10.9396C161.369 12.0548 160.611 12.9469 159.63 13.616L163.845 20.6415C163.667 21.1767 163.087 21.7901 162.105 22.4815C160.767 23.4405 159.663 23.92 158.793 23.92C157.923 23.92 157.277 23.6078 156.853 22.9833L153.708 15.6567H152.671V23.2509ZM152.671 6.22255V11.2407H152.838C154.957 11.2407 156.017 10.3598 156.017 8.59782C156.017 7.79491 155.805 7.20388 155.381 6.82473C154.979 6.42328 154.31 6.22255 153.374 6.22255H152.671ZM176.887 9.60146C177.311 9.60146 177.523 10.3821 177.523 11.9433C177.523 12.4116 177.467 12.9692 177.355 13.616C177.266 14.2405 177.088 14.5527 176.82 14.5527H172.571V17.8982H178.727C179.106 17.8982 179.363 18.3889 179.496 19.3702C179.563 19.7939 179.597 20.2512 179.597 20.7418C179.597 21.2102 179.53 21.8235 179.396 22.5818C179.262 23.3401 179.039 23.7193 178.727 23.7193H167.286C166.438 23.7193 166.014 23.3736 166.014 22.6822V1.17091C166.014 0.591031 166.271 0.301091 166.784 0.301091H178.76C179.229 0.301091 179.463 1.29358 179.463 3.27855C179.463 5.24121 179.229 6.22255 178.76 6.22255H172.571V9.60146H176.887Z" fill="black"/>
</svg>
